<svg width="170" height="68" viewBox="0 0 170 68" fill="none" xmlns="http://www.w3.org/2000/svg">
<path fill-rule="evenodd" clip-rule="evenodd" d="M68.1058 7.77145C69.137 5.80257 71.3202 4.54858 73.717 4.54858L85.3607 4.54858C87.4594 4.54858 89.4164 5.5123 90.5644 7.1111C90.8219 7.46977 91.0309 7.84953 91.1907 8.24262C93.0232 6.9559 95.2886 6.05512 98.0013 6.05512L121.159 6.05512C124.127 6.05512 126.47 7.1298 128.216 8.68158C130.148 7.16046 132.611 6.05512 135.625 6.05512L158.764 6.05512C163.434 6.05512 166.576 8.70427 168.269 11.725C168.28 11.7444 168.291 11.7639 168.302 11.7834C169.486 13.9585 170 16.3061 170 18.6967C170 19.5033 169.944 20.3175 169.84 21.1353C169.837 21.1566 169.834 21.1779 169.831 21.1992L165.781 50.1731C165.316 53.4503 164.066 56.4867 161.883 59.0945L161.862 59.1185C159.75 61.6144 156.564 63.8789 152.255 63.8789L129.117 63.8789C127.316 63.8789 125.741 63.4871 124.387 62.8304C123.366 63.4928 122.119 63.8789 120.782 63.8789H85.3607C83.5755 63.8789 81.8764 63.1804 80.6964 61.9614C79.5163 60.7423 78.9692 59.1204 79.1945 57.5089L81.7946 38.9058C82.1558 36.3373 83.1179 33.5979 85.1275 31.496C85.0787 31.449 85.0308 31.4012 84.9837 31.3526C84.1264 30.4674 83.6029 29.3696 83.4667 28.2175L65.9241 64.6154C64.933 66.6717 62.6991 67.9999 60.2316 67.9999L46.4106 67.9999C44.2772 67.9999 42.2929 67.0043 41.1542 65.3626C40.7955 64.8455 40.5365 64.2871 40.3787 63.7099C40.2504 63.7171 40.1211 63.7208 39.991 63.7208L24.6715 63.7208C22.8855 63.7208 21.1858 63.0217 20.0057 61.8018C19.107 60.8727 18.5758 59.7099 18.4736 58.4961H8.71692C6.93093 58.4961 5.23123 57.797 4.05116 56.5771C2.87109 55.3572 2.32468 53.7343 2.55122 52.1222L3.28545 46.8975C3.38848 46.1644 3.64841 45.4567 4.05055 44.8146L26.633 8.75288C27.7387 6.9872 29.8003 5.897 32.0336 5.897L46.4998 5.897C48.2856 5.897 49.985 6.59588 51.1651 7.81552C52.3452 9.03515 52.8918 10.6577 52.6657 12.2696L49.0132 38.3053C49.1389 38.4148 49.26 38.5296 49.3761 38.6494C50.0251 39.3191 50.4829 40.1107 50.7264 40.9554L68.1058 7.77145ZM40.7252 52.8397H43.2652L44.7138 42.3904H42.1738L46.4998 11.5534L32.0336 11.5534L9.45114 47.615L8.71692 52.8397H25.4057L24.6715 58.0644L39.991 58.0644L40.7252 52.8397ZM28.2632 32.4805L26.8741 42.3904H22.0521L28.2632 32.4805ZM46.4106 62.3435L73.717 10.205H85.3607L60.2316 62.3435L46.4106 62.3435ZM90.6392 20.4856L89.647 27.6127L104.967 27.6127L105.244 25.5683C105.26 25.4605 105.278 25.3545 105.299 25.2503C105.309 25.2025 105.319 25.1551 105.33 25.108C105.338 25.0742 105.346 25.0405 105.354 25.0071C105.359 24.9868 105.365 24.9665 105.37 24.9464C105.378 24.9169 105.386 24.8876 105.394 24.8584C105.513 24.4408 105.683 24.0547 105.902 23.7001C105.917 23.6762 105.932 23.6526 105.947 23.629C106.047 23.4742 106.157 23.3256 106.276 23.1831C106.832 22.5016 107.44 22.1609 108.102 22.1609C108.763 22.1609 109.286 22.4921 109.67 23.1547C109.947 23.6658 110.086 24.2337 110.086 24.8584C110.086 25.0855 110.066 25.3222 110.027 25.5683L109.808 27.0732C109.786 27.2424 109.755 27.3997 109.713 27.5453C109.651 27.7628 109.568 27.9539 109.463 28.1186C109.261 28.4358 108.979 28.6552 108.618 28.7769L91.9291 33.9448C89.7198 34.6263 88.3968 36.5193 87.9603 39.6238L85.3607 58.2225H120.782L122.251 47.7732H102.149L102.823 42.8892C102.865 42.5957 102.934 42.3383 103.028 42.1168C103.233 41.6383 103.562 41.3279 104.014 41.1855L120.723 35.9892C122.932 35.3267 124.255 33.4337 124.691 30.3102L126.061 20.4856C126.072 20.4027 126.082 20.3202 126.091 20.2381C126.091 20.2368 126.091 20.2355 126.091 20.2342C126.15 19.7171 126.18 19.2141 126.18 18.7251C126.18 17.0592 125.823 15.5827 125.108 14.2954C124.873 13.8758 124.617 13.5072 124.34 13.1898C123.48 12.2043 122.42 11.7115 121.159 11.7115L98.0013 11.7115C96.3212 11.7115 94.7535 12.5728 93.2983 14.2954C91.8563 16.0181 90.9699 18.0814 90.6392 20.4856ZM124.215 49.4485C124.123 50.0921 124.076 50.7073 124.076 51.2941C124.076 52.9411 124.433 54.3892 125.148 55.6386C125.686 56.612 126.343 57.3104 127.117 57.7338C127.714 58.0596 128.38 58.2225 129.117 58.2225L152.255 58.2225C153.935 58.2225 155.496 57.3707 156.938 55.667C158.38 53.9444 159.273 51.8715 159.617 49.4485L163.665 20.4856C163.744 19.8609 163.784 19.2646 163.784 18.6967C163.784 17.0498 163.433 15.5827 162.732 14.2954C161.767 12.5728 160.444 11.7115 158.764 11.7115L135.625 11.7115C134.164 11.7115 132.797 12.3529 131.522 13.6357C131.32 13.8394 131.12 14.0593 130.922 14.2954C129.846 15.5819 129.079 17.0585 128.621 18.7251C128.466 19.2901 128.347 19.8769 128.263 20.4856L126.855 30.5599L124.215 49.4485ZM143.96 46.7793C144.381 46.2892 144.682 45.7213 144.864 45.0756C144.873 45.0457 144.881 45.0156 144.889 44.9853C144.896 44.9582 144.903 44.9309 144.909 44.9035C144.92 44.8604 144.93 44.817 144.939 44.7733C144.941 44.7662 144.942 44.759 144.944 44.7519C144.971 44.6259 144.993 44.4972 145.012 44.3658L147.631 25.5683C147.671 25.3222 147.691 25.0855 147.691 24.8584C147.691 24.2337 147.552 23.6658 147.274 23.1547C146.89 22.4921 146.374 22.1609 145.726 22.1609C145.065 22.1609 144.456 22.5016 143.9 23.1831C143.492 23.67 143.198 24.2284 143.018 24.8584C143.01 24.8884 143.001 24.9186 142.993 24.949C142.986 24.9761 142.979 25.0033 142.973 25.0307C142.967 25.0531 142.962 25.0755 142.956 25.098C142.945 25.1449 142.935 25.1922 142.925 25.2398C142.903 25.3474 142.884 25.4569 142.868 25.5683L140.325 43.8233L140.324 43.8249L140.249 44.3658C140.209 44.6119 140.19 44.8485 140.19 45.0756C140.19 45.7193 140.328 46.2872 140.606 46.7793C140.977 47.4419 141.493 47.7732 142.154 47.7732C142.802 47.7732 143.404 47.4419 143.96 46.7793Z" fill="#950E0E"/>
<path fill-rule="evenodd" clip-rule="evenodd" d="M65.6048 3.22287C66.636 1.25398 68.8193 0 71.2161 0L82.8597 0C84.9585 0 86.9155 0.963719 88.0634 2.56252C88.3209 2.92119 88.5299 3.30095 88.6897 3.69404C90.5222 2.40732 92.7876 1.50654 95.5003 1.50654L118.658 1.50654C121.626 1.50654 123.969 2.58122 125.715 4.13299C127.647 2.61188 130.11 1.50654 133.124 1.50654L156.263 1.50654C160.933 1.50654 164.075 4.15568 165.768 7.1764C165.779 7.19582 165.79 7.21531 165.801 7.23485C166.985 9.40994 167.499 11.7576 167.499 14.1481C167.499 14.9547 167.443 15.7689 167.339 16.5867C167.336 16.608 167.333 16.6293 167.33 16.6507L163.281 45.6245C162.815 48.9018 161.565 51.9381 159.382 54.5459L159.361 54.5699C157.249 57.0658 154.063 59.3303 149.754 59.3303H126.616C124.815 59.3303 123.24 58.9385 121.886 58.2819C120.865 58.9443 119.618 59.3303 118.281 59.3303L82.8597 59.3303C81.0745 59.3303 79.3754 58.6318 78.1954 57.4128C77.0153 56.1937 76.4683 54.5718 76.6935 52.9603L79.2937 34.3573C79.6549 31.7887 80.617 29.0493 82.6265 26.9474C82.5777 26.9005 82.5298 26.8527 82.4827 26.804C81.6254 25.9188 81.1019 24.821 80.9657 23.6689L63.4231 60.0668C62.432 62.1231 60.1981 63.4513 57.7306 63.4513L43.9096 63.4513C41.7762 63.4513 39.7919 62.4557 38.6532 60.814C38.2945 60.2969 38.0355 59.7385 37.8777 59.1613C37.7494 59.1685 37.6201 59.1722 37.49 59.1722L22.1705 59.1722C20.3845 59.1722 18.6848 58.4731 17.5047 57.2532C16.606 56.3241 16.0748 55.1613 15.9727 53.9475H6.21594C4.42995 53.9475 2.73026 53.2484 1.55019 52.0285C0.370114 50.8086 -0.176301 49.1857 0.0502465 47.5736L0.784473 42.349C0.887503 41.6158 1.14744 40.9081 1.54958 40.266L24.132 4.2043C25.2377 2.43862 27.2993 1.34841 29.5326 1.34841L43.9988 1.34841C45.7846 1.34841 47.4841 2.0473 48.6641 3.26693C49.8442 4.48657 50.3908 6.10913 50.1647 7.72105L46.5123 33.7567C46.638 33.8662 46.7591 33.981 46.8751 34.1008C47.5241 34.7705 47.982 35.5621 48.2254 36.4068L65.6048 3.22287ZM38.2242 48.2911H40.7643L42.2129 37.8418H39.6728L43.9988 7.00479L29.5326 7.00479L6.95017 43.0665L6.21594 48.2911H22.9047L22.1705 53.5158L37.49 53.5158L38.2242 48.2911ZM25.7622 27.9319L24.3732 37.8418L19.5511 37.8418L25.7622 27.9319ZM43.9096 57.7949L71.2161 5.65637L82.8597 5.65637L57.7306 57.7949L43.9096 57.7949ZM88.1382 15.937L87.146 23.0641H102.466L102.743 21.0197C102.759 20.9119 102.777 20.8059 102.798 20.7017C102.808 20.6539 102.818 20.6065 102.829 20.5594C102.837 20.5256 102.845 20.4919 102.853 20.4585C102.858 20.4382 102.864 20.4179 102.869 20.3978C102.877 20.3683 102.885 20.339 102.893 20.3098C103.012 19.8923 103.182 19.5061 103.401 19.1515C103.416 19.1276 103.431 19.104 103.446 19.0804C103.546 18.9257 103.656 18.777 103.775 18.6345C104.331 17.953 104.939 17.6123 105.601 17.6123C106.262 17.6123 106.785 17.9436 107.169 18.6061C107.446 19.1172 107.585 19.6851 107.585 20.3098C107.585 20.537 107.565 20.7736 107.526 21.0197L107.307 22.5246C107.285 22.6938 107.254 22.8511 107.212 22.9967C107.15 23.2142 107.067 23.4053 106.962 23.5701C106.76 23.8872 106.478 24.1066 106.117 24.2283L89.4281 29.3962C87.2188 30.0777 85.8959 31.9707 85.4593 35.0752L82.8597 53.6739L118.281 53.6739L119.75 43.2246L99.6477 43.2246L100.322 38.3406C100.364 38.0472 100.433 37.7897 100.527 37.5682C100.732 37.0897 101.061 36.7793 101.513 36.6369L118.222 31.4407C120.431 30.7781 121.754 28.8851 122.19 25.7616L123.56 15.937C123.571 15.8541 123.581 15.7716 123.59 15.6895C123.59 15.6882 123.59 15.6869 123.59 15.6856C123.649 15.1685 123.679 14.6655 123.679 14.1765C123.679 12.5106 123.322 11.0341 122.607 9.74686C122.372 9.3272 122.116 8.95865 121.839 8.64123C120.979 7.65569 119.919 7.16291 118.658 7.16291L95.5003 7.16291C93.8202 7.16291 92.2525 8.02423 90.7973 9.74686C89.3553 11.4695 88.469 13.5329 88.1382 15.937ZM121.714 44.8999C121.622 45.5435 121.575 46.1587 121.575 46.7456C121.575 48.3925 121.932 49.8406 122.647 51.09C123.185 52.0634 123.842 52.7618 124.616 53.1852C125.213 53.511 125.879 53.6739 126.616 53.6739H149.754C151.434 53.6739 152.995 52.8221 154.437 51.1184C155.879 49.3958 156.772 47.3229 157.116 44.8999L161.164 15.937C161.243 15.3123 161.283 14.716 161.283 14.1481C161.283 12.5012 160.932 11.0341 160.231 9.74686C159.266 8.02423 157.943 7.16291 156.263 7.16291L133.124 7.16291C131.663 7.16291 130.296 7.8043 129.021 9.08708C128.819 9.29083 128.619 9.51075 128.421 9.74686C127.345 11.0334 126.578 12.5099 126.12 14.1765C125.965 14.7415 125.846 15.3283 125.762 15.937L124.354 26.0114L121.714 44.8999ZM141.459 42.2308C141.88 41.7406 142.181 41.1727 142.363 40.5271C142.372 40.4971 142.38 40.467 142.388 40.4367C142.395 40.4096 142.402 40.3823 142.408 40.3549C142.419 40.3119 142.429 40.2685 142.438 40.2247C142.44 40.2176 142.441 40.2105 142.443 40.2033C142.47 40.0773 142.492 39.9486 142.511 39.8172L145.13 21.0197C145.17 20.7736 145.19 20.537 145.19 20.3098C145.19 19.6851 145.051 19.1172 144.773 18.6061C144.389 17.9436 143.873 17.6123 143.225 17.6123C142.564 17.6123 141.955 17.953 141.399 18.6345C140.991 19.1214 140.697 19.6798 140.517 20.3098C140.509 20.3398 140.501 20.37 140.492 20.4004C140.485 20.4275 140.478 20.4547 140.472 20.4821C140.466 20.5045 140.461 20.5269 140.455 20.5494C140.444 20.5963 140.434 20.6436 140.424 20.6912C140.402 20.7988 140.383 20.9083 140.368 21.0197L137.824 39.2747L137.823 39.2763L137.748 39.8172C137.708 40.0633 137.689 40.2999 137.689 40.5271C137.689 41.1707 137.827 41.7386 138.105 42.2308C138.476 42.8933 138.992 43.2246 139.653 43.2246C140.301 43.2246 140.903 42.8933 141.459 42.2308Z" fill="#C61515"/>
<g filter="url(#filter0_f_844_3309)">
<path d="M71.215 5.65698L82.8587 5.65698L57.7295 57.7955L43.9085 57.7956L71.215 5.65698Z" fill="#372F2F"/>
<path d="M118.657 7.16352C120.324 7.16352 121.64 8.02484 122.606 9.74747C123.32 11.0347 123.678 12.5113 123.678 14.1771C123.678 14.745 123.638 15.3318 123.559 15.9376L122.189 25.7623C121.753 28.8857 120.43 30.7787 118.221 31.4413L101.512 36.6376C100.851 36.8458 100.454 37.4137 100.321 38.3413L99.6466 43.2252H119.749L118.28 53.6746H82.8587L85.4582 35.0758C85.8948 31.9713 87.2177 30.0783 89.427 29.3968L106.116 24.2289C106.79 24.0018 107.187 23.4339 107.306 22.5252L107.525 21.0203C107.564 20.7742 107.584 20.5376 107.584 20.3104C107.584 19.6857 107.445 19.1178 107.168 18.6067C106.784 17.9442 106.261 17.6129 105.6 17.6129C104.938 17.6129 104.33 17.9536 103.774 18.6351C103.219 19.2977 102.875 20.0927 102.742 21.0203L102.464 23.0647L87.1449 23.0647L88.1371 15.9376C88.4679 13.5335 89.3542 11.4701 90.7962 9.74747C92.2515 8.02484 93.8191 7.16352 95.4992 7.16352L118.657 7.16352Z" fill="#372F2F"/>
<path d="M133.123 7.16352L156.261 7.16352C157.942 7.16352 159.264 8.02484 160.23 9.74747C160.931 11.0347 161.282 12.5018 161.282 14.1487C161.282 14.7166 161.242 15.3129 161.163 15.9376L157.115 44.9005C156.771 47.3235 155.878 49.3964 154.436 51.119C152.994 52.8227 151.433 53.6746 149.753 53.6746L126.615 53.6746C124.921 53.6746 123.598 52.8133 122.646 51.0906C121.931 49.8412 121.574 48.3931 121.574 46.7462C121.574 46.1594 121.621 45.5441 121.713 44.9005L125.761 15.9376C126.092 13.5335 126.978 11.4701 128.42 9.74747C129.862 8.02484 131.43 7.16352 133.123 7.16352ZM143.224 17.6129C142.562 17.6129 141.954 17.9536 141.398 18.6351C140.843 19.2977 140.499 20.0927 140.366 21.0203L137.747 39.8178C137.707 40.0639 137.687 40.3005 137.687 40.5277C137.687 41.1713 137.826 41.7392 138.104 42.2314C138.475 42.8939 138.991 43.2252 139.652 43.2252C140.3 43.2252 140.902 42.8939 141.458 42.2314C142.027 41.5688 142.377 40.7643 142.51 39.8178L145.129 21.0203C145.169 20.7742 145.189 20.5376 145.189 20.3104C145.189 19.6857 145.05 19.1178 144.772 18.6067C144.388 17.9442 143.872 17.6129 143.224 17.6129Z" fill="#372F2F"/>
<path d="M29.5315 7.00539L43.9977 7.00539L39.6718 37.8424H42.2118L40.7632 48.2918H38.2231L37.4889 53.5164L22.1694 53.5164L22.9036 48.2918H6.21484L6.94907 43.0671L29.5315 7.00539ZM24.3721 37.8424L25.7611 27.9325L19.55 37.8424H24.3721Z" fill="#372F2F"/>
</g>
<g filter="url(#filter1_i_844_3309)">
<path d="M71.215 5.65698L82.8586 5.65698L57.7295 57.7955L43.9085 57.7956L71.215 5.65698Z" fill="white"/>
<path d="M118.657 7.16352C120.324 7.16352 121.64 8.02484 122.606 9.74747C123.32 11.0347 123.678 12.5113 123.678 14.1771C123.678 14.745 123.638 15.3318 123.559 15.9376L122.189 25.7623C121.753 28.8857 120.43 30.7787 118.221 31.4413L101.512 36.6376C100.85 36.8458 100.454 37.4137 100.321 38.3413L99.6466 43.2252H119.749L118.28 53.6746H82.8586L85.4582 35.0758C85.8948 31.9713 87.2177 30.0783 89.427 29.3968L106.116 24.2289C106.79 24.0018 107.187 23.4339 107.306 22.5252L107.525 21.0203C107.564 20.7742 107.584 20.5376 107.584 20.3104C107.584 19.6857 107.445 19.1178 107.167 18.6067C106.784 17.9442 106.261 17.6129 105.6 17.6129C104.938 17.6129 104.33 17.9536 103.774 18.6351C103.219 19.2977 102.875 20.0927 102.742 21.0203L102.464 23.0647L87.1449 23.0647L88.1371 15.9376C88.4679 13.5335 89.3542 11.4701 90.7962 9.74747C92.2514 8.02484 93.8191 7.16352 95.4992 7.16352L118.657 7.16352Z" fill="white"/>
<path d="M133.123 7.16352L156.261 7.16352C157.942 7.16352 159.264 8.02484 160.23 9.74747C160.931 11.0347 161.282 12.5018 161.282 14.1487C161.282 14.7166 161.242 15.3129 161.163 15.9376L157.115 44.9005C156.771 47.3236 155.878 49.3964 154.436 51.119C152.994 52.8227 151.433 53.6746 149.753 53.6746L126.615 53.6746C124.921 53.6746 123.598 52.8133 122.646 51.0906C121.931 49.8412 121.574 48.3931 121.574 46.7462C121.574 46.1594 121.621 45.5441 121.713 44.9005L125.761 15.9376C126.092 13.5335 126.978 11.4701 128.42 9.74747C129.862 8.02484 131.43 7.16352 133.123 7.16352ZM143.224 17.6129C142.562 17.6129 141.954 17.9536 141.398 18.6351C140.843 19.2977 140.499 20.0927 140.366 21.0203L137.747 39.8178C137.707 40.0639 137.687 40.3005 137.687 40.5277C137.687 41.1713 137.826 41.7392 138.104 42.2314C138.475 42.8939 138.991 43.2252 139.652 43.2252C140.3 43.2252 140.902 42.8939 141.458 42.2314C142.027 41.5688 142.377 40.7643 142.51 39.8178L145.129 21.0203C145.169 20.7742 145.189 20.5376 145.189 20.3104C145.189 19.6857 145.05 19.1178 144.772 18.6067C144.388 17.9442 143.872 17.6129 143.224 17.6129Z" fill="white"/>
<path d="M29.5315 7.00539L43.9977 7.00539L39.6718 37.8424H42.2118L40.7632 48.2918H38.2231L37.4889 53.5164L22.1694 53.5164L22.9036 48.2918H6.21484L6.94907 43.0671L29.5315 7.00539ZM24.3721 37.8424L25.7611 27.9325L19.55 37.8424H24.3721Z" fill="white"/>
</g>
<defs>
<filter id="filter0_f_844_3309" x="3.33141" y="2.77355" width="160.834" height="57.9055" filterUnits="userSpaceOnUse" color-interpolation-filters="sRGB">
<feFlood flood-opacity="0" result="BackgroundImageFix"/>
<feBlend mode="normal" in="SourceGraphic" in2="BackgroundImageFix" result="shape"/>
<feGaussianBlur stdDeviation="1.44171" result="effect1_foregroundBlur_844_3309"/>
</filter>
<filter id="filter1_i_844_3309" x="6.21484" y="2.77355" width="155.067" height="55.0221" filterUnits="userSpaceOnUse" color-interpolation-filters="sRGB">
<feFlood flood-opacity="0" result="BackgroundImageFix"/>
<feBlend mode="normal" in="SourceGraphic" in2="BackgroundImageFix" result="shape"/>
<feColorMatrix in="SourceAlpha" type="matrix" values="0 0 0 0 0 0 0 0 0 0 0 0 0 0 0 0 0 0 127 0" result="hardAlpha"/>
<feOffset dy="-2.88343"/>
<feGaussianBlur stdDeviation="1.44171"/>
<feComposite in2="hardAlpha" operator="arithmetic" k2="-1" k3="1"/>
<feColorMatrix type="matrix" values="0 0 0 0 0 0 0 0 0 0 0 0 0 0 0 0 0 0 0.24 0"/>
<feBlend mode="normal" in2="shape" result="effect1_innerShadow_844_3309"/>
</filter>
</defs>
</svg>
