<svg width="15" height="15" viewBox="0 0 15 15" fill="none" xmlns="http://www.w3.org/2000/svg"><path d="M3.985 2.04c-.118-.962 1.063-1.512 1.724-.804l2.113 2.266a1 1 0 0 0 1.154.224l2.807-1.31c.878-.409 1.767.545 1.298 1.392l-1.502 2.71a1 1 0 0 0 .143 1.166l2.113 2.266c.66.708.028 1.848-.923 1.664l-3.04-.592a1 1 0 0 0-1.066.497l-1.502 2.71c-.47.847-1.749.598-1.867-.363l-.378-3.075a1 1 0 0 0-.801-.86l-3.041-.59C.266 9.154.107 7.86.985 7.451l2.808-1.31a1 1 0 0 0 .57-1.027L3.985 2.04Z" fill="#F04D08"/></svg>