<svg viewBox="0 0 34 24" fill="none" xmlns="http://www.w3.org/2000/svg"><path d="M17.106.334h.184c1.695.007 10.286.068 12.602.686.7.189 1.339.556 1.851 1.066s.88 1.145 1.068 1.84c.208.778.355 1.807.454 2.87l.02.212.046.532.016.213c.134 1.87.15 3.622.153 4.005v.153c-.002.397-.02 2.268-.17 4.216l-.016.215-.018.213c-.103 1.17-.256 2.332-.485 3.188a4.1 4.1 0 0 1-1.067 1.84c-.513.51-1.151.878-1.852 1.066-2.392.638-11.486.683-12.747.685h-.293c-.637 0-3.273-.012-6.037-.106l-.35-.012-.18-.008-.353-.015-.352-.014c-2.29-.1-4.47-.262-5.475-.532a4.148 4.148 0 0 1-1.85-1.065 4.1 4.1 0 0 1-1.068-1.839c-.23-.853-.382-2.018-.485-3.188l-.016-.215-.017-.213A63.759 63.759 0 0 1 .5 11.96v-.251c.004-.44.02-1.96.132-3.639l.014-.21.007-.107.016-.213.046-.532.02-.213c.1-1.062.246-2.093.454-2.869a4.1 4.1 0 0 1 1.067-1.84A4.147 4.147 0 0 1 4.108 1.02C5.112.754 7.292.59 9.582.488l.35-.014.355-.013.178-.006.352-.014C12.78.378 14.744.343 16.708.337l.398-.003Zm-3.405 6.57v9.86l8.574-4.928-8.574-4.932Z" fill="#141414"/></svg>